<svg width="30" height="51" viewBox="0 0 30 51" fill="none" xmlns="http://www.w3.org/2000/svg">
<ellipse cx="15" cy="25.6611" rx="15" ry="24.887" fill="#3683F0"/>
<path d="M15.2031 15.4911L9.8125 19.9442V24.7196C9.8125 24.9833 10.0176 25.1884 10.2812 25.1884H13.5625C13.7969 25.1884 14.002 24.9833 14.002 24.7196V21.9071C14.002 21.6727 14.2363 21.4384 14.4707 21.4384H16.3457C16.6094 21.4384 16.8145 21.6727 16.8145 21.9071V24.7196C16.8145 24.9833 17.0488 25.1884 17.2832 25.1884H20.5938C20.8281 25.1884 21.0625 24.9833 21.0625 24.7196V19.9149L15.6426 15.4911C15.584 15.4325 15.4961 15.4032 15.4375 15.4032C15.3496 15.4032 15.2617 15.4325 15.2031 15.4911ZM23.7285 18.5087L21.2969 16.4872V12.4442C21.2969 12.2391 21.1211 12.0927 20.9453 12.0927H19.3047C19.0996 12.0927 18.9531 12.2391 18.9531 12.4442V14.5536L16.3164 12.3856C16.082 12.2098 15.7598 12.0927 15.4375 12.0927C15.0859 12.0927 14.7637 12.2098 14.5293 12.3856L7.11719 18.5087C7.0293 18.5673 6.9707 18.6844 6.9707 18.7723C6.9707 18.8602 7.0293 18.9481 7.05859 19.0067L7.82031 19.9149C7.87891 20.0028 7.9668 20.0321 8.08398 20.0321C8.17188 20.0321 8.25977 20.0028 8.31836 19.9442L15.2031 14.2899C15.2617 14.2313 15.3496 14.202 15.4375 14.202C15.4961 14.202 15.584 14.2313 15.6426 14.2899L22.5273 19.9442C22.5859 20.0028 22.6738 20.0321 22.7617 20.0321C22.8789 20.0321 22.9668 20.0028 23.0254 19.9149L23.7871 19.0067C23.8457 18.9481 23.875 18.8602 23.875 18.7723C23.875 18.6844 23.8164 18.5673 23.7285 18.5087Z" fill="white"/>
</svg>
