<svg width="30" height="51" viewBox="0 0 30 51" fill="none" xmlns="http://www.w3.org/2000/svg">
<ellipse cx="15" cy="25.6611" rx="15" ry="24.887" fill="#3683F0"/>
<path d="M22.6777 22.7274L19.25 19.2997C18.5469 18.6259 17.5508 18.4794 16.7305 18.8895L13.625 15.7841V13.9384L9.875 11.1259L8 13.0009L10.8125 16.7509H12.6289L15.7344 19.8856C15.3535 20.7059 15.4707 21.702 16.1445 22.3759L19.5723 25.8329C20.0117 26.243 20.6855 26.243 21.125 25.8329L22.6777 24.2802C23.0879 23.8407 23.0879 23.1669 22.6777 22.7274ZM17.6973 17.7177C18.5469 17.7177 19.3086 18.0399 19.8945 18.6259L20.4805 19.2118C20.9199 19.0067 21.3594 18.7137 21.7402 18.3329C22.8242 17.2489 23.2051 15.7255 22.8535 14.3485C22.7949 14.0848 22.4727 13.9969 22.2676 14.1727L20.0996 16.37L18.1074 16.0184L17.7852 14.0262L19.9531 11.8583C20.1582 11.6532 20.041 11.3309 19.7773 11.2723C18.4004 10.9208 16.877 11.3016 15.793 12.3856C14.9434 13.2059 14.5625 14.3192 14.5625 15.4032L16.9941 17.8055C17.2285 17.7469 17.4629 17.7177 17.6973 17.7177ZM14.6504 20.12L13.0098 18.4794L8.52734 22.9325C7.79492 23.6649 7.79492 24.8661 8.52734 25.5985C9.25977 26.3309 10.4609 26.3309 11.1934 25.5985L14.7969 21.9657C14.5918 21.3798 14.5039 20.7645 14.6504 20.12ZM9.875 24.954C9.46484 24.954 9.17188 24.661 9.17188 24.2509C9.17188 23.87 9.46484 23.5477 9.875 23.5477C10.2559 23.5477 10.5781 23.87 10.5781 24.2509C10.5781 24.661 10.2559 24.954 9.875 24.954Z" fill="white"/>
</svg>
